<svg xmlns="http://www.w3.org/2000/svg" width="2700" height="1138" viewBox="0 0 2700 1138" role="img" aria-labelledby="title desc">
<title id="title">CertificateTransactionItem structural mapping graph</title>
<desc id="desc">Native UML-like graph of OCF route nodes, Carta parent and nested variant nodes, containment edges, and property mappings.</desc>
<style>text{font-family:-apple-system,BlinkMacSystemFont,"Segoe UI",sans-serif}.field{font-family:ui-monospace,SFMono-Regular,Menlo,Consolas,monospace}.muted{font-size:13px}</style>
<defs>
      <marker id="property-arrow" markerWidth="10" markerHeight="10" refX="9" refY="5" orient="auto" markerUnits="strokeWidth"><path d="M0,0 L10,5 L0,10 z" fill="#64748b"/></marker>
      <marker id="contains-arrow" markerWidth="10" markerHeight="10" refX="9" refY="5" orient="auto" markerUnits="strokeWidth"><path d="M0,0 L10,5 L0,10 z" fill="#7c3aed"/></marker>
      <marker id="composition-diamond" markerWidth="12" markerHeight="12" refX="2" refY="6" orient="auto" markerUnits="strokeWidth"><path d="M0,6 L6,0 L12,6 L6,12 z" fill="#7c3aed"/></marker>
    </defs>
<rect width="2700" height="1138" fill="#f8fafc"/>
<text x="70" y="48" fill="#0f172a" font-size="34" font-weight="700"><tspan x="70" dy="0">CertificateTransactionItem</tspan></text>
<text x="70" y="84" fill="#475569" font-size="20"><tspan x="70" dy="0">Native structural mapping graph · 3 parent properties · 2 nested variants</tspan></text>
<text x="70" y="116" fill="#64748b" font-size="16"><tspan x="70" dy="0">OCF route classes map directly to Carta parent and nested variant properties; dashed purple edges show containment.</tspan></text>
<rect x="2080" y="38" width="20" height="20" rx="4" fill="#e6f4ea" stroke="#62a576"/>
<text x="2114" y="54" fill="#166534" font-size="16"><tspan x="2114" dy="0">OCF route node</tspan></text>
<rect x="2310" y="38" width="20" height="20" rx="4" fill="#e8f0fe" stroke="#6b8fd6"/>
<text x="2344" y="54" fill="#1e3a8a" font-size="16"><tspan x="2344" dy="0">Carta class node</tspan></text>
<line x1="2080" y1="84" x2="2130" y2="84" stroke="#64748b" stroke-width="2" marker-end="url(#property-arrow)"/>
<text x="2150" y="90" fill="#475569" font-size="14"><tspan x="2150" dy="0">property mapping</tspan></text>
<line x1="2080" y1="112" x2="2130" y2="112" stroke="#7c3aed" stroke-width="2" stroke-dasharray="7 5" marker-end="url(#contains-arrow)"/>
<text x="2150" y="118" fill="#6d28d9" font-size="14"><tspan x="2150" dy="0">contains</tspan></text>
<rect x="50" y="164" width="690" height="752" rx="14" fill="#f0fdf4" stroke="#bbf7d0" stroke-dasharray="8 6"/>
<text x="70" y="154" fill="#166534" font-size="18" font-weight="700"><tspan x="70" dy="0">OCF source routes</tspan></text>
<rect x="1720" y="164" width="920" height="930" rx="14" fill="#eff6ff" stroke="#bfdbfe" stroke-dasharray="8 6"/>
<text x="1740" y="154" fill="#1e3a8a" font-size="18" font-weight="700"><tspan x="1740" dy="0">Carta target class structure</tspan></text>
<path d="M 720 303 C 1250.4 303, 1250.4 641, 1740 641" fill="none" stroke="#64748b" stroke-width="2" marker-end="url(#property-arrow)"><title>StockCancellation [Default].date → CertificateTransactionItem.cancellations[].effectiveDatetime</title></path>
<path d="M 720 337 C 1250.4 337, 1250.4 675, 1740 675" fill="none" stroke="#64748b" stroke-width="2" marker-end="url(#property-arrow)"><title>StockCancellation [Default].quantity → CertificateTransactionItem.cancellations[].quantity</title></path>
<path d="M 720 371 C 1250.4 371, 1250.4 709, 1740 709" fill="none" stroke="#64748b" stroke-width="2" marker-end="url(#property-arrow)"><title>StockCancellation [Default].reason_text → CertificateTransactionItem.cancellations[].reason</title></path>
<path d="M 720 405 C 1250.4 405, 1250.4 305, 1740 305" fill="none" stroke="#64748b" stroke-width="2" marker-end="url(#property-arrow)"><title>StockCancellation [Default].security_id → CertificateTransactionItem.securityId</title></path>
<path d="M 720 579 C 1250.4 579, 1250.4 857, 1740 857" fill="none" stroke="#64748b" stroke-width="2" marker-end="url(#property-arrow)"><title>StockIssuance [Default].cost_basis → CertificateTransactionItem.issuance.acquisitionCost</title></path>
<path d="M 720 613 C 1250.4 613, 1250.4 339, 1740 339" fill="none" stroke="#64748b" stroke-width="2" marker-end="url(#property-arrow)"><title>StockIssuance [Default].custom_id → CertificateTransactionItem.securityLabel</title></path>
<path d="M 720 647 C 1250.4 647, 1250.4 925, 1740 925" fill="none" stroke="#64748b" stroke-width="2" marker-end="url(#property-arrow)"><title>StockIssuance [Default].date → CertificateTransactionItem.issuance.issueDatetime</title></path>
<path d="M 720 681 C 1250.4 681, 1250.4 959, 1740 959" fill="none" stroke="#64748b" stroke-width="2" marker-end="url(#property-arrow)"><title>StockIssuance [Default].quantity → CertificateTransactionItem.issuance.quantity</title></path>
<path d="M 720 715 C 1250.4 715, 1250.4 305, 1740 305" fill="none" stroke="#64748b" stroke-width="2" marker-end="url(#property-arrow)"><title>StockIssuance [Default].security_id → CertificateTransactionItem.securityId</title></path>
<path d="M 720 749 C 1250.4 749, 1250.4 373, 1740 373" fill="none" stroke="#64748b" stroke-width="2" marker-end="url(#property-arrow)"><title>StockIssuance [Default].stakeholder_id → CertificateTransactionItem.stakeholderId</title></path>
<path d="M 720 783 C 1250.4 783, 1250.4 993, 1740 993" fill="none" stroke="#64748b" stroke-width="2" marker-end="url(#property-arrow)"><title>StockIssuance [Default].stock_class_id → CertificateTransactionItem.issuance.shareClassId</title></path>
<path d="M 720 817 C 1250.4 817, 1250.4 891, 1740 891" fill="none" stroke="#64748b" stroke-width="2" marker-end="url(#property-arrow)"><title>StockIssuance [Default].stock_plan_id → CertificateTransactionItem.issuance.equityPlanId</title></path>
<path d="M 720 851 C 1250.4 851, 1250.4 1027, 1740 1027" fill="none" stroke="#64748b" stroke-width="2" marker-end="url(#property-arrow)"><title>StockIssuance [Default].vesting_terms_id → CertificateTransactionItem.issuance.vestingScheduleTemplateId</title></path>
<path d="M 720 233 C 1250.4 233, 1250.4 574, 1740 574" fill="none" stroke="#7c3aed" stroke-width="2" stroke-dasharray="7 5" marker-end="url(#contains-arrow)"><title>StockCancellation [Default] contains cancellations[] → CertificateCancellationTransaction</title></path>
<path d="M 720 509 C 1250.4 509, 1250.4 790, 1740 790" fill="none" stroke="#7c3aed" stroke-width="2" stroke-dasharray="7 5" marker-end="url(#contains-arrow)"><title>StockIssuance [Default] contains issuance → CertificateIssuanceTransaction</title></path>
<path d="M 2620 419 L 2650 419 L 2650 546 L 2620 546" fill="none" stroke="#7c3aed" stroke-width="2" stroke-dasharray="7 5" marker-start="url(#composition-diamond)" marker-end="url(#contains-arrow)"><title>CertificateTransactionItem contains cancellations[] → CertificateCancellationTransaction</title></path>
<path d="M 2620 453 L 2650 453 L 2650 762 L 2620 762" fill="none" stroke="#7c3aed" stroke-width="2" stroke-dasharray="7 5" marker-start="url(#composition-diamond)" marker-end="url(#contains-arrow)"><title>CertificateTransactionItem contains issuance → CertificateIssuanceTransaction</title></path>
<rect x="70" y="194" width="650" height="242" rx="10" fill="#e6f4ea" stroke="#62a576" stroke-width="2"/>
<text x="88" y="216" fill="#166534" font-size="13" font-weight="700"><tspan x="88" dy="0">«OCF route»</tspan></text>
<text x="88" y="238" fill="#14532d" font-size="16" font-weight="700"><tspan x="88" dy="0">StockCancellation [Default]</tspan></text>
<text x="88" y="256" fill="#166534" font-size="12"><tspan x="88" dy="0">when security_id → issuance_type (lookup) = FOUNDERS_STOCK</tspan></text>
<line x1="70" y1="286" x2="720" y2="286" stroke="#b7d8bf"/>
<text x="88" y="309" class="field" fill="#14532d" font-size="16" font-weight="700"><tspan x="88" dy="0">+ date</tspan></text>
<line x1="70" y1="320" x2="720" y2="320" stroke="#b7d8bf"/>
<text x="88" y="343" class="field" fill="#14532d" font-size="16" font-weight="700"><tspan x="88" dy="0">+ quantity</tspan></text>
<line x1="70" y1="354" x2="720" y2="354" stroke="#b7d8bf"/>
<text x="88" y="377" class="field" fill="#14532d" font-size="16" font-weight="700"><tspan x="88" dy="0">+ reason_text</tspan></text>
<line x1="70" y1="388" x2="720" y2="388" stroke="#b7d8bf"/>
<text x="88" y="411" class="field" fill="#14532d" font-size="16" font-weight="700"><tspan x="88" dy="0">+ security_id</tspan></text>
<rect x="70" y="470" width="650" height="412" rx="10" fill="#e6f4ea" stroke="#62a576" stroke-width="2"/>
<text x="88" y="492" fill="#166534" font-size="13" font-weight="700"><tspan x="88" dy="0">«OCF route»</tspan></text>
<text x="88" y="514" fill="#14532d" font-size="16" font-weight="700"><tspan x="88" dy="0">StockIssuance [Default]</tspan></text>
<text x="88" y="532" fill="#166534" font-size="12"><tspan x="88" dy="0">when issuance_type = FOUNDERS_STOCK</tspan></text>
<line x1="70" y1="562" x2="720" y2="562" stroke="#b7d8bf"/>
<text x="88" y="585" class="field" fill="#14532d" font-size="16" font-weight="700"><tspan x="88" dy="0">+ cost_basis</tspan></text>
<line x1="70" y1="596" x2="720" y2="596" stroke="#b7d8bf"/>
<text x="88" y="619" class="field" fill="#14532d" font-size="16" font-weight="700"><tspan x="88" dy="0">+ custom_id</tspan></text>
<line x1="70" y1="630" x2="720" y2="630" stroke="#b7d8bf"/>
<text x="88" y="653" class="field" fill="#14532d" font-size="16" font-weight="700"><tspan x="88" dy="0">+ date</tspan></text>
<line x1="70" y1="664" x2="720" y2="664" stroke="#b7d8bf"/>
<text x="88" y="687" class="field" fill="#14532d" font-size="16" font-weight="700"><tspan x="88" dy="0">+ quantity</tspan></text>
<line x1="70" y1="698" x2="720" y2="698" stroke="#b7d8bf"/>
<text x="88" y="721" class="field" fill="#14532d" font-size="16" font-weight="700"><tspan x="88" dy="0">+ security_id</tspan></text>
<line x1="70" y1="732" x2="720" y2="732" stroke="#b7d8bf"/>
<text x="88" y="755" class="field" fill="#14532d" font-size="16" font-weight="700"><tspan x="88" dy="0">+ stakeholder_id</tspan></text>
<line x1="70" y1="766" x2="720" y2="766" stroke="#b7d8bf"/>
<text x="88" y="789" class="field" fill="#14532d" font-size="16" font-weight="700"><tspan x="88" dy="0">+ stock_class_id</tspan></text>
<line x1="70" y1="800" x2="720" y2="800" stroke="#b7d8bf"/>
<text x="88" y="823" class="field" fill="#14532d" font-size="16" font-weight="700"><tspan x="88" dy="0">+ stock_plan_id</tspan></text>
<line x1="70" y1="834" x2="720" y2="834" stroke="#b7d8bf"/>
<text x="88" y="857" class="field" fill="#14532d" font-size="16" font-weight="700"><tspan x="88" dy="0">+ vesting_terms_id</tspan></text>
<rect x="1740" y="194" width="880" height="322" rx="10" fill="#e8f0fe" stroke="#6b8fd6" stroke-width="2"/>
<text x="1758" y="216" fill="#1e3a8a" font-size="13" font-weight="700"><tspan x="1758" dy="0">«Carta parent»</tspan></text>
<text x="1758" y="238" fill="#1e3a8a" font-size="18" font-weight="700"><tspan x="1758" dy="0">CertificateTransactionItem</tspan></text>
<line x1="1740" y1="258" x2="2620" y2="258" stroke="#9bb6ea"/>
<text x="1758" y="280" fill="#1e3a8a" font-size="14" font-weight="700"><tspan x="1758" dy="0">parent properties (3)</tspan></text>
<line x1="1740" y1="372" x2="2620" y2="372" stroke="#9bb6ea"/>
<text x="1758" y="394" fill="#1e3a8a" font-size="14" font-weight="700"><tspan x="1758" dy="0">contains (2 nested variants)</tspan></text>
<line x1="1740" y1="288" x2="2620" y2="288" stroke="#c4d3f3"/>
<text x="1758" y="311" class="field" fill="#1e3a8a" font-size="16" font-weight="700"><tspan x="1758" dy="0">+ securityId</tspan></text>
<line x1="1740" y1="322" x2="2620" y2="322" stroke="#c4d3f3"/>
<text x="1758" y="345" class="field" fill="#1e3a8a" font-size="16" font-weight="700"><tspan x="1758" dy="0">+ securityLabel</tspan></text>
<line x1="1740" y1="356" x2="2620" y2="356" stroke="#c4d3f3"/>
<text x="1758" y="379" class="field" fill="#1e3a8a" font-size="16" font-weight="700"><tspan x="1758" dy="0">+ stakeholderId</tspan></text>
<line x1="1740" y1="402" x2="2620" y2="402" stroke="#c4d3f3"/>
<text x="1758" y="425" class="field" fill="#1e3a8a" font-size="16" font-weight="700"><tspan x="1758" dy="0">+ cancellations[]: CertificateCancellationTransaction</tspan></text>
<line x1="1740" y1="436" x2="2620" y2="436" stroke="#c4d3f3"/>
<text x="1758" y="459" class="field" fill="#1e3a8a" font-size="16" font-weight="700"><tspan x="1758" dy="0">+ issuance: CertificateIssuanceTransaction</tspan></text>
<rect x="1740" y="560" width="880" height="182" rx="10" fill="#e8f0fe" stroke="#6b8fd6" stroke-width="2"/>
<text x="1758" y="582" fill="#1e3a8a" font-size="13" font-weight="700"><tspan x="1758" dy="0">«nested variant»</tspan></text>
<text x="1758" y="604" fill="#1e3a8a" font-size="18" font-weight="700"><tspan x="1758" dy="0">cancellations[] → CertificateCancellationTransaction</tspan></text>
<line x1="1740" y1="624" x2="2620" y2="624" stroke="#c4d3f3"/>
<text x="1758" y="647" class="field" fill="#1e3a8a" font-size="16" font-weight="700"><tspan x="1758" dy="0">+ effectiveDatetime</tspan></text>
<line x1="1740" y1="658" x2="2620" y2="658" stroke="#c4d3f3"/>
<text x="1758" y="681" class="field" fill="#1e3a8a" font-size="16" font-weight="700"><tspan x="1758" dy="0">+ quantity</tspan></text>
<line x1="1740" y1="692" x2="2620" y2="692" stroke="#c4d3f3"/>
<text x="1758" y="715" class="field" fill="#1e3a8a" font-size="16" font-weight="700"><tspan x="1758" dy="0">+ reason</tspan></text>
<rect x="1740" y="776" width="880" height="284" rx="10" fill="#e8f0fe" stroke="#6b8fd6" stroke-width="2"/>
<text x="1758" y="798" fill="#1e3a8a" font-size="13" font-weight="700"><tspan x="1758" dy="0">«nested variant»</tspan></text>
<text x="1758" y="820" fill="#1e3a8a" font-size="18" font-weight="700"><tspan x="1758" dy="0">issuance → CertificateIssuanceTransaction</tspan></text>
<line x1="1740" y1="840" x2="2620" y2="840" stroke="#c4d3f3"/>
<text x="1758" y="863" class="field" fill="#1e3a8a" font-size="16" font-weight="700"><tspan x="1758" dy="0">+ acquisitionCost</tspan></text>
<line x1="1740" y1="874" x2="2620" y2="874" stroke="#c4d3f3"/>
<text x="1758" y="897" class="field" fill="#1e3a8a" font-size="16" font-weight="700"><tspan x="1758" dy="0">+ equityPlanId</tspan></text>
<line x1="1740" y1="908" x2="2620" y2="908" stroke="#c4d3f3"/>
<text x="1758" y="931" class="field" fill="#1e3a8a" font-size="16" font-weight="700"><tspan x="1758" dy="0">+ issueDatetime</tspan></text>
<line x1="1740" y1="942" x2="2620" y2="942" stroke="#c4d3f3"/>
<text x="1758" y="965" class="field" fill="#1e3a8a" font-size="16" font-weight="700"><tspan x="1758" dy="0">+ quantity</tspan></text>
<line x1="1740" y1="976" x2="2620" y2="976" stroke="#c4d3f3"/>
<text x="1758" y="999" class="field" fill="#1e3a8a" font-size="16" font-weight="700"><tspan x="1758" dy="0">+ shareClassId</tspan></text>
<line x1="1740" y1="1010" x2="2620" y2="1010" stroke="#c4d3f3"/>
<text x="1758" y="1033" class="field" fill="#1e3a8a" font-size="16" font-weight="700"><tspan x="1758" dy="0">+ vestingScheduleTemplateId</tspan></text>
</svg>