<svg xmlns="http://www.w3.org/2000/svg" width="2700" height="1764" viewBox="0 0 2700 1764" role="img" aria-labelledby="title desc">
<title id="title">RestrictedStockUnit structural mapping graph</title>
<desc id="desc">Native UML-like graph of OCF route nodes, Carta parent and nested variant nodes, containment edges, and property mappings.</desc>
<style>text{font-family:-apple-system,BlinkMacSystemFont,"Segoe UI",sans-serif}.field{font-family:ui-monospace,SFMono-Regular,Menlo,Consolas,monospace}.muted{font-size:13px}</style>
<defs>
      <marker id="property-arrow" markerWidth="10" markerHeight="10" refX="9" refY="5" orient="auto" markerUnits="strokeWidth"><path d="M0,0 L10,5 L0,10 z" fill="#64748b"/></marker>
      <marker id="contains-arrow" markerWidth="10" markerHeight="10" refX="9" refY="5" orient="auto" markerUnits="strokeWidth"><path d="M0,0 L10,5 L0,10 z" fill="#7c3aed"/></marker>
      <marker id="composition-diamond" markerWidth="12" markerHeight="12" refX="2" refY="6" orient="auto" markerUnits="strokeWidth"><path d="M0,6 L6,0 L12,6 L6,12 z" fill="#7c3aed"/></marker>
    </defs>
<rect width="2700" height="1764" fill="#f8fafc"/>
<text x="70" y="48" fill="#0f172a" font-size="34" font-weight="700"><tspan x="70" dy="0">RestrictedStockUnit</tspan></text>
<text x="70" y="84" fill="#475569" font-size="20"><tspan x="70" dy="0">Native structural mapping graph · 17 shared parent properties · 2 nested variants</tspan></text>
<text x="70" y="116" fill="#64748b" font-size="16"><tspan x="70" dy="0">OCF route classes → property mappings → Carta class structure; dashed purple edges are containment.</tspan></text>
<rect x="2080" y="38" width="20" height="20" rx="4" fill="#e6f4ea" stroke="#62a576"/>
<text x="2114" y="54" fill="#166534" font-size="16"><tspan x="2114" dy="0">OCF route node</tspan></text>
<rect x="2310" y="38" width="20" height="20" rx="4" fill="#e8f0fe" stroke="#6b8fd6"/>
<text x="2344" y="54" fill="#1e3a8a" font-size="16"><tspan x="2344" dy="0">Carta class node</tspan></text>
<line x1="2080" y1="84" x2="2130" y2="84" stroke="#64748b" stroke-width="2" marker-end="url(#property-arrow)"/>
<text x="2150" y="90" fill="#475569" font-size="14"><tspan x="2150" dy="0">property mapping</tspan></text>
<line x1="2080" y1="112" x2="2130" y2="112" stroke="#7c3aed" stroke-width="2" stroke-dasharray="7 5" marker-end="url(#contains-arrow)"/>
<text x="2150" y="118" fill="#6d28d9" font-size="14"><tspan x="2150" dy="0">contains</tspan></text>
<rect x="50" y="164" width="690" height="1556" rx="14" fill="#f0fdf4" stroke="#bbf7d0" stroke-dasharray="8 6"/>
<text x="70" y="154" fill="#166534" font-size="18" font-weight="700"><tspan x="70" dy="0">OCF source routes</tspan></text>
<rect x="1720" y="164" width="920" height="1236" rx="14" fill="#eff6ff" stroke="#bfdbfe" stroke-dasharray="8 6"/>
<text x="1740" y="154" fill="#1e3a8a" font-size="18" font-weight="700"><tspan x="1740" dy="0">Carta target class structure</tspan></text>
<path d="M 720 303 C 1250.4 303, 1250.4 713, 1740 713" fill="none" stroke="#64748b" stroke-width="2" marker-end="url(#property-arrow)"><title>EquityCompensationAcceptance [Rsu].date → RestrictedStockUnit.stakeholderAcceptanceDate</title></path>
<path d="M 720 477 C 1250.4 477, 1250.4 339, 1740 339" fill="none" stroke="#64748b" stroke-width="2" marker-end="url(#property-arrow)"><title>EquityCompensationCancellation [Rsu].date → RestrictedStockUnit.canceledDate</title></path>
<path d="M 720 511 C 1250.4 511, 1250.4 373, 1740 373" fill="none" stroke="#64748b" stroke-width="2" marker-end="url(#property-arrow)"><title>EquityCompensationCancellation [Rsu].quantity → RestrictedStockUnit.canceledQuantity</title></path>
<path d="M 720 545 C 1250.4 545, 1250.4 611, 1740 611" fill="none" stroke="#64748b" stroke-width="2" marker-end="url(#property-arrow)"><title>EquityCompensationCancellation [Rsu].security_id → RestrictedStockUnit.securityId</title></path>
<path d="M 720 719 C 1250.4 719, 1250.4 305, 1740 305" fill="none" stroke="#64748b" stroke-width="2" marker-end="url(#property-arrow)"><title>EquityCompensationIssuance [Rsu].board_approval_date → RestrictedStockUnit.boardApprovalDate</title></path>
<path d="M 720 753 C 1250.4 753, 1250.4 645, 1740 645" fill="none" stroke="#64748b" stroke-width="2" marker-end="url(#property-arrow)"><title>EquityCompensationIssuance [Rsu].custom_id → RestrictedStockUnit.securityLabel</title></path>
<path d="M 720 787 C 1250.4 787, 1250.4 441, 1740 441" fill="none" stroke="#64748b" stroke-width="2" marker-end="url(#property-arrow)"><title>EquityCompensationIssuance [Rsu].date → RestrictedStockUnit.issueDate</title></path>
<path d="M 720 821 C 1250.4 821, 1250.4 475, 1740 475" fill="none" stroke="#64748b" stroke-width="2" marker-end="url(#property-arrow)"><title>EquityCompensationIssuance [Rsu].quantity → RestrictedStockUnit.quantity</title></path>
<path d="M 720 855 C 1250.4 855, 1250.4 611, 1740 611" fill="none" stroke="#64748b" stroke-width="2" marker-end="url(#property-arrow)"><title>EquityCompensationIssuance [Rsu].security_id → RestrictedStockUnit.securityId</title></path>
<path d="M 720 889 C 1250.4 889, 1250.4 747, 1740 747" fill="none" stroke="#64748b" stroke-width="2" marker-end="url(#property-arrow)"><title>EquityCompensationIssuance [Rsu].stakeholder_id → RestrictedStockUnit.stakeholderId</title></path>
<path d="M 720 923 C 1250.4 923, 1250.4 679, 1740 679" fill="none" stroke="#64748b" stroke-width="2" marker-end="url(#property-arrow)"><title>EquityCompensationIssuance [Rsu].stock_class_id → RestrictedStockUnit.shareClassId</title></path>
<path d="M 720 957 C 1250.4 957, 1250.4 1333, 1740 1333" fill="none" stroke="#64748b" stroke-width="2" marker-end="url(#property-arrow)"><title>EquityCompensationIssuance [Rsu].vesting_start_date → RestrictedStockUnit.vestingSchedule.startDate</title></path>
<path d="M 720 957 C 1250.4 957, 1250.4 849, 1740 849" fill="none" stroke="#64748b" stroke-width="2" marker-end="url(#property-arrow)"><title>EquityCompensationIssuance [Rsu].vesting_start_date → RestrictedStockUnit.vestingStartDate</title></path>
<path d="M 720 991 C 1250.4 991, 1250.4 815, 1740 815" fill="none" stroke="#64748b" stroke-width="2" marker-end="url(#property-arrow)"><title>EquityCompensationIssuance [Rsu].vesting_template_id → RestrictedStockUnit.vestingScheduleTemplateId</title></path>
<path d="M 720 1025 C 1250.4 1025, 1250.4 781, 1740 781" fill="none" stroke="#64748b" stroke-width="2" marker-end="url(#property-arrow)"><title>EquityCompensationIssuance [Rsu].vestings → RestrictedStockUnit.vestingEvents</title></path>
<path d="M 720 1199 C 1250.4 1199, 1250.4 543, 1740 543" fill="none" stroke="#64748b" stroke-width="2" marker-end="url(#property-arrow)"><title>EquityCompensationRelease [Rsu].quantity → RestrictedStockUnit.releasedQuantity</title></path>
<path d="M 720 1199 C 1250.4 1199, 1250.4 1117, 1740 1117" fill="none" stroke="#64748b" stroke-width="2" marker-end="url(#property-arrow)"><title>EquityCompensationRelease [Rsu].quantity → RestrictedStockUnit.settlements[].releaseQuantity</title></path>
<path d="M 720 1233 C 1250.4 1233, 1250.4 509, 1740 509" fill="none" stroke="#64748b" stroke-width="2" marker-end="url(#property-arrow)"><title>EquityCompensationRelease [Rsu].release_price → RestrictedStockUnit.releasePricePerShare</title></path>
<path d="M 720 1233 C 1250.4 1233, 1250.4 1185, 1740 1185" fill="none" stroke="#64748b" stroke-width="2" marker-end="url(#property-arrow)"><title>EquityCompensationRelease [Rsu].release_price → RestrictedStockUnit.settlements[].settlementPrice</title></path>
<path d="M 720 1267 C 1250.4 1267, 1250.4 611, 1740 611" fill="none" stroke="#64748b" stroke-width="2" marker-end="url(#property-arrow)"><title>EquityCompensationRelease [Rsu].security_id → RestrictedStockUnit.securityId</title></path>
<path d="M 720 1301 C 1250.4 1301, 1250.4 1151, 1740 1151" fill="none" stroke="#64748b" stroke-width="2" marker-end="url(#property-arrow)"><title>EquityCompensationRelease [Rsu].settlement_date → RestrictedStockUnit.settlements[].settlementDate</title></path>
<path d="M 720 1447 C 1250.4 1447, 1250.4 407, 1740 407" fill="none" stroke="#64748b" stroke-width="2" marker-end="url(#property-arrow)"><title>StockPlan.plan_name → RestrictedStockUnit.equityIncentivePlanName</title></path>
<path d="M 720 1621 C 1250.4 1621, 1250.4 577, 1740 577" fill="none" stroke="#64748b" stroke-width="2" marker-end="url(#property-arrow)"><title>StockPlanReturnToPool [Rsu].quantity → RestrictedStockUnit.returnedToPoolQuantity</title></path>
<path d="M 720 1655 C 1250.4 1655, 1250.4 611, 1740 611" fill="none" stroke="#64748b" stroke-width="2" marker-end="url(#property-arrow)"><title>StockPlanReturnToPool [Rsu].security_id → RestrictedStockUnit.securityId</title></path>
<path d="M 720 649 C 1250.4 649, 1250.4 1266, 1740 1266" fill="none" stroke="#7c3aed" stroke-width="2" stroke-dasharray="7 5" marker-end="url(#contains-arrow)"><title>EquityCompensationIssuance [Rsu] contains vestingSchedule → VestingSchedule</title></path>
<path d="M 720 1129 C 1250.4 1129, 1250.4 1050, 1740 1050" fill="none" stroke="#7c3aed" stroke-width="2" stroke-dasharray="7 5" marker-end="url(#contains-arrow)"><title>EquityCompensationRelease [Rsu] contains settlements[] → RestrictedStockUnitSettlement</title></path>
<path d="M 2620 895 L 2650 895 L 2650 1022 L 2620 1022" fill="none" stroke="#7c3aed" stroke-width="2" stroke-dasharray="7 5" marker-start="url(#composition-diamond)" marker-end="url(#contains-arrow)"><title>RestrictedStockUnit contains settlements[] → RestrictedStockUnitSettlement</title></path>
<path d="M 2620 929 L 2650 929 L 2650 1238 L 2620 1238" fill="none" stroke="#7c3aed" stroke-width="2" stroke-dasharray="7 5" marker-start="url(#composition-diamond)" marker-end="url(#contains-arrow)"><title>RestrictedStockUnit contains vestingSchedule → VestingSchedule</title></path>
<rect x="70" y="194" width="650" height="140" rx="10" fill="#e6f4ea" stroke="#62a576" stroke-width="2"/>
<text x="88" y="216" fill="#166534" font-size="13" font-weight="700"><tspan x="88" dy="0">«OCF route»</tspan></text>
<text x="88" y="238" fill="#14532d" font-size="16" font-weight="700"><tspan x="88" dy="0">EquityCompensationAcceptance [Rsu]</tspan></text>
<text x="88" y="256" fill="#166534" font-size="12"><tspan x="88" dy="0">when security_id → compensation_type (lookup) = RSU</tspan></text>
<line x1="70" y1="286" x2="720" y2="286" stroke="#b7d8bf"/>
<text x="88" y="309" class="field" fill="#14532d" font-size="16" font-weight="700"><tspan x="88" dy="0">+ date</tspan></text>
<rect x="70" y="368" width="650" height="208" rx="10" fill="#e6f4ea" stroke="#62a576" stroke-width="2"/>
<text x="88" y="390" fill="#166534" font-size="13" font-weight="700"><tspan x="88" dy="0">«OCF route»</tspan></text>
<text x="88" y="412" fill="#14532d" font-size="16" font-weight="700"><tspan x="88" dy="0">EquityCompensationCancellation [Rsu]</tspan></text>
<text x="88" y="430" fill="#166534" font-size="12"><tspan x="88" dy="0">when security_id → compensation_type (lookup) = RSU</tspan></text>
<line x1="70" y1="460" x2="720" y2="460" stroke="#b7d8bf"/>
<text x="88" y="483" class="field" fill="#14532d" font-size="16" font-weight="700"><tspan x="88" dy="0">+ date</tspan></text>
<line x1="70" y1="494" x2="720" y2="494" stroke="#b7d8bf"/>
<text x="88" y="517" class="field" fill="#14532d" font-size="16" font-weight="700"><tspan x="88" dy="0">+ quantity</tspan></text>
<line x1="70" y1="528" x2="720" y2="528" stroke="#b7d8bf"/>
<text x="88" y="551" class="field" fill="#14532d" font-size="16" font-weight="700"><tspan x="88" dy="0">+ security_id</tspan></text>
<rect x="70" y="610" width="650" height="446" rx="10" fill="#e6f4ea" stroke="#62a576" stroke-width="2"/>
<text x="88" y="632" fill="#166534" font-size="13" font-weight="700"><tspan x="88" dy="0">«OCF route»</tspan></text>
<text x="88" y="654" fill="#14532d" font-size="16" font-weight="700"><tspan x="88" dy="0">EquityCompensationIssuance [Rsu]</tspan></text>
<text x="88" y="672" fill="#166534" font-size="12"><tspan x="88" dy="0">when compensation_type = RSU</tspan></text>
<line x1="70" y1="702" x2="720" y2="702" stroke="#b7d8bf"/>
<text x="88" y="725" class="field" fill="#14532d" font-size="16" font-weight="700"><tspan x="88" dy="0">+ board_approval_date</tspan></text>
<line x1="70" y1="736" x2="720" y2="736" stroke="#b7d8bf"/>
<text x="88" y="759" class="field" fill="#14532d" font-size="16" font-weight="700"><tspan x="88" dy="0">+ custom_id</tspan></text>
<line x1="70" y1="770" x2="720" y2="770" stroke="#b7d8bf"/>
<text x="88" y="793" class="field" fill="#14532d" font-size="16" font-weight="700"><tspan x="88" dy="0">+ date</tspan></text>
<line x1="70" y1="804" x2="720" y2="804" stroke="#b7d8bf"/>
<text x="88" y="827" class="field" fill="#14532d" font-size="16" font-weight="700"><tspan x="88" dy="0">+ quantity</tspan></text>
<line x1="70" y1="838" x2="720" y2="838" stroke="#b7d8bf"/>
<text x="88" y="861" class="field" fill="#14532d" font-size="16" font-weight="700"><tspan x="88" dy="0">+ security_id</tspan></text>
<line x1="70" y1="872" x2="720" y2="872" stroke="#b7d8bf"/>
<text x="88" y="895" class="field" fill="#14532d" font-size="16" font-weight="700"><tspan x="88" dy="0">+ stakeholder_id</tspan></text>
<line x1="70" y1="906" x2="720" y2="906" stroke="#b7d8bf"/>
<text x="88" y="929" class="field" fill="#14532d" font-size="16" font-weight="700"><tspan x="88" dy="0">+ stock_class_id</tspan></text>
<line x1="70" y1="940" x2="720" y2="940" stroke="#b7d8bf"/>
<text x="88" y="963" class="field" fill="#14532d" font-size="16" font-weight="700"><tspan x="88" dy="0">+ vesting_start_date</tspan></text>
<line x1="70" y1="974" x2="720" y2="974" stroke="#b7d8bf"/>
<text x="88" y="997" class="field" fill="#14532d" font-size="16" font-weight="700"><tspan x="88" dy="0">+ vesting_template_id</tspan></text>
<line x1="70" y1="1008" x2="720" y2="1008" stroke="#b7d8bf"/>
<text x="88" y="1031" class="field" fill="#14532d" font-size="16" font-weight="700"><tspan x="88" dy="0">+ vestings</tspan></text>
<rect x="70" y="1090" width="650" height="242" rx="10" fill="#e6f4ea" stroke="#62a576" stroke-width="2"/>
<text x="88" y="1112" fill="#166534" font-size="13" font-weight="700"><tspan x="88" dy="0">«OCF route»</tspan></text>
<text x="88" y="1134" fill="#14532d" font-size="16" font-weight="700"><tspan x="88" dy="0">EquityCompensationRelease [Rsu]</tspan></text>
<text x="88" y="1152" fill="#166534" font-size="12"><tspan x="88" dy="0">when security_id → compensation_type (lookup) = RSU</tspan></text>
<line x1="70" y1="1182" x2="720" y2="1182" stroke="#b7d8bf"/>
<text x="88" y="1205" class="field" fill="#14532d" font-size="16" font-weight="700"><tspan x="88" dy="0">+ quantity</tspan></text>
<line x1="70" y1="1216" x2="720" y2="1216" stroke="#b7d8bf"/>
<text x="88" y="1239" class="field" fill="#14532d" font-size="16" font-weight="700"><tspan x="88" dy="0">+ release_price</tspan></text>
<line x1="70" y1="1250" x2="720" y2="1250" stroke="#b7d8bf"/>
<text x="88" y="1273" class="field" fill="#14532d" font-size="16" font-weight="700"><tspan x="88" dy="0">+ security_id</tspan></text>
<line x1="70" y1="1284" x2="720" y2="1284" stroke="#b7d8bf"/>
<text x="88" y="1307" class="field" fill="#14532d" font-size="16" font-weight="700"><tspan x="88" dy="0">+ settlement_date</tspan></text>
<rect x="70" y="1366" width="650" height="112" rx="10" fill="#e6f4ea" stroke="#62a576" stroke-width="2"/>
<text x="88" y="1388" fill="#166534" font-size="13" font-weight="700"><tspan x="88" dy="0">«OCF route»</tspan></text>
<text x="88" y="1410" fill="#14532d" font-size="16" font-weight="700"><tspan x="88" dy="0">StockPlan</tspan></text>
<line x1="70" y1="1430" x2="720" y2="1430" stroke="#b7d8bf"/>
<text x="88" y="1453" class="field" fill="#14532d" font-size="16" font-weight="700"><tspan x="88" dy="0">+ plan_name</tspan></text>
<rect x="70" y="1512" width="650" height="174" rx="10" fill="#e6f4ea" stroke="#62a576" stroke-width="2"/>
<text x="88" y="1534" fill="#166534" font-size="13" font-weight="700"><tspan x="88" dy="0">«OCF route»</tspan></text>
<text x="88" y="1556" fill="#14532d" font-size="16" font-weight="700"><tspan x="88" dy="0">StockPlanReturnToPool [Rsu]</tspan></text>
<text x="88" y="1574" fill="#166534" font-size="12"><tspan x="88" dy="0">when security_id → compensation_type (lookup) = RSU</tspan></text>
<line x1="70" y1="1604" x2="720" y2="1604" stroke="#b7d8bf"/>
<text x="88" y="1627" class="field" fill="#14532d" font-size="16" font-weight="700"><tspan x="88" dy="0">+ quantity</tspan></text>
<line x1="70" y1="1638" x2="720" y2="1638" stroke="#b7d8bf"/>
<text x="88" y="1661" class="field" fill="#14532d" font-size="16" font-weight="700"><tspan x="88" dy="0">+ security_id</tspan></text>
<rect x="1740" y="194" width="880" height="798" rx="10" fill="#e8f0fe" stroke="#6b8fd6" stroke-width="2"/>
<text x="1758" y="216" fill="#1e3a8a" font-size="13" font-weight="700"><tspan x="1758" dy="0">«Carta parent»</tspan></text>
<text x="1758" y="238" fill="#1e3a8a" font-size="18" font-weight="700"><tspan x="1758" dy="0">RestrictedStockUnit</tspan></text>
<line x1="1740" y1="258" x2="2620" y2="258" stroke="#9bb6ea"/>
<text x="1758" y="280" fill="#1e3a8a" font-size="14" font-weight="700"><tspan x="1758" dy="0">shared parent properties (17)</tspan></text>
<line x1="1740" y1="848" x2="2620" y2="848" stroke="#9bb6ea"/>
<text x="1758" y="870" fill="#1e3a8a" font-size="14" font-weight="700"><tspan x="1758" dy="0">contains (2 nested variants)</tspan></text>
<line x1="1740" y1="288" x2="2620" y2="288" stroke="#c4d3f3"/>
<text x="1758" y="311" class="field" fill="#1e3a8a" font-size="16" font-weight="700"><tspan x="1758" dy="0">+ boardApprovalDate</tspan></text>
<line x1="1740" y1="322" x2="2620" y2="322" stroke="#c4d3f3"/>
<text x="1758" y="345" class="field" fill="#1e3a8a" font-size="16" font-weight="700"><tspan x="1758" dy="0">+ canceledDate</tspan></text>
<line x1="1740" y1="356" x2="2620" y2="356" stroke="#c4d3f3"/>
<text x="1758" y="379" class="field" fill="#1e3a8a" font-size="16" font-weight="700"><tspan x="1758" dy="0">+ canceledQuantity</tspan></text>
<line x1="1740" y1="390" x2="2620" y2="390" stroke="#c4d3f3"/>
<text x="1758" y="413" class="field" fill="#1e3a8a" font-size="16" font-weight="700"><tspan x="1758" dy="0">+ equityIncentivePlanName</tspan></text>
<line x1="1740" y1="424" x2="2620" y2="424" stroke="#c4d3f3"/>
<text x="1758" y="447" class="field" fill="#1e3a8a" font-size="16" font-weight="700"><tspan x="1758" dy="0">+ issueDate</tspan></text>
<line x1="1740" y1="458" x2="2620" y2="458" stroke="#c4d3f3"/>
<text x="1758" y="481" class="field" fill="#1e3a8a" font-size="16" font-weight="700"><tspan x="1758" dy="0">+ quantity</tspan></text>
<line x1="1740" y1="492" x2="2620" y2="492" stroke="#c4d3f3"/>
<text x="1758" y="515" class="field" fill="#1e3a8a" font-size="16" font-weight="700"><tspan x="1758" dy="0">+ releasePricePerShare</tspan></text>
<line x1="1740" y1="526" x2="2620" y2="526" stroke="#c4d3f3"/>
<text x="1758" y="549" class="field" fill="#1e3a8a" font-size="16" font-weight="700"><tspan x="1758" dy="0">+ releasedQuantity</tspan></text>
<line x1="1740" y1="560" x2="2620" y2="560" stroke="#c4d3f3"/>
<text x="1758" y="583" class="field" fill="#1e3a8a" font-size="16" font-weight="700"><tspan x="1758" dy="0">+ returnedToPoolQuantity</tspan></text>
<line x1="1740" y1="594" x2="2620" y2="594" stroke="#c4d3f3"/>
<text x="1758" y="617" class="field" fill="#1e3a8a" font-size="16" font-weight="700"><tspan x="1758" dy="0">+ securityId</tspan></text>
<line x1="1740" y1="628" x2="2620" y2="628" stroke="#c4d3f3"/>
<text x="1758" y="651" class="field" fill="#1e3a8a" font-size="16" font-weight="700"><tspan x="1758" dy="0">+ securityLabel</tspan></text>
<line x1="1740" y1="662" x2="2620" y2="662" stroke="#c4d3f3"/>
<text x="1758" y="685" class="field" fill="#1e3a8a" font-size="16" font-weight="700"><tspan x="1758" dy="0">+ shareClassId</tspan></text>
<line x1="1740" y1="696" x2="2620" y2="696" stroke="#c4d3f3"/>
<text x="1758" y="719" class="field" fill="#1e3a8a" font-size="16" font-weight="700"><tspan x="1758" dy="0">+ stakeholderAcceptanceDate</tspan></text>
<line x1="1740" y1="730" x2="2620" y2="730" stroke="#c4d3f3"/>
<text x="1758" y="753" class="field" fill="#1e3a8a" font-size="16" font-weight="700"><tspan x="1758" dy="0">+ stakeholderId</tspan></text>
<line x1="1740" y1="764" x2="2620" y2="764" stroke="#c4d3f3"/>
<text x="1758" y="787" class="field" fill="#1e3a8a" font-size="16" font-weight="700"><tspan x="1758" dy="0">+ vestingEvents</tspan></text>
<line x1="1740" y1="798" x2="2620" y2="798" stroke="#c4d3f3"/>
<text x="1758" y="821" class="field" fill="#1e3a8a" font-size="16" font-weight="700"><tspan x="1758" dy="0">+ vestingScheduleTemplateId</tspan></text>
<line x1="1740" y1="832" x2="2620" y2="832" stroke="#c4d3f3"/>
<text x="1758" y="855" class="field" fill="#1e3a8a" font-size="16" font-weight="700"><tspan x="1758" dy="0">+ vestingStartDate</tspan></text>
<line x1="1740" y1="878" x2="2620" y2="878" stroke="#c4d3f3"/>
<text x="1758" y="901" class="field" fill="#1e3a8a" font-size="16" font-weight="700"><tspan x="1758" dy="0">+ settlements[]: RestrictedStockUnitSettlement</tspan></text>
<line x1="1740" y1="912" x2="2620" y2="912" stroke="#c4d3f3"/>
<text x="1758" y="935" class="field" fill="#1e3a8a" font-size="16" font-weight="700"><tspan x="1758" dy="0">+ vestingSchedule: VestingSchedule</tspan></text>
<rect x="1740" y="1036" width="880" height="182" rx="10" fill="#e8f0fe" stroke="#6b8fd6" stroke-width="2"/>
<text x="1758" y="1058" fill="#1e3a8a" font-size="13" font-weight="700"><tspan x="1758" dy="0">«nested variant»</tspan></text>
<text x="1758" y="1080" fill="#1e3a8a" font-size="18" font-weight="700"><tspan x="1758" dy="0">settlements[] → RestrictedStockUnitSettlement</tspan></text>
<line x1="1740" y1="1100" x2="2620" y2="1100" stroke="#c4d3f3"/>
<text x="1758" y="1123" class="field" fill="#1e3a8a" font-size="16" font-weight="700"><tspan x="1758" dy="0">+ releaseQuantity</tspan></text>
<line x1="1740" y1="1134" x2="2620" y2="1134" stroke="#c4d3f3"/>
<text x="1758" y="1157" class="field" fill="#1e3a8a" font-size="16" font-weight="700"><tspan x="1758" dy="0">+ settlementDate</tspan></text>
<line x1="1740" y1="1168" x2="2620" y2="1168" stroke="#c4d3f3"/>
<text x="1758" y="1191" class="field" fill="#1e3a8a" font-size="16" font-weight="700"><tspan x="1758" dy="0">+ settlementPrice</tspan></text>
<rect x="1740" y="1252" width="880" height="114" rx="10" fill="#e8f0fe" stroke="#6b8fd6" stroke-width="2"/>
<text x="1758" y="1274" fill="#1e3a8a" font-size="13" font-weight="700"><tspan x="1758" dy="0">«nested variant»</tspan></text>
<text x="1758" y="1296" fill="#1e3a8a" font-size="18" font-weight="700"><tspan x="1758" dy="0">vestingSchedule → VestingSchedule</tspan></text>
<line x1="1740" y1="1316" x2="2620" y2="1316" stroke="#c4d3f3"/>
<text x="1758" y="1339" class="field" fill="#1e3a8a" font-size="16" font-weight="700"><tspan x="1758" dy="0">+ startDate</tspan></text>
</svg>