<svg xmlns="http://www.w3.org/2000/svg" width="2700" height="834" viewBox="0 0 2700 834" role="img" aria-labelledby="title desc">
<title id="title">ShareClassValuation structural mapping graph</title>
<desc id="desc">Native UML-like graph of OCF route nodes, Carta parent and nested variant nodes, containment edges, and property mappings.</desc>
<style>text{font-family:-apple-system,BlinkMacSystemFont,"Segoe UI",sans-serif}.field{font-family:ui-monospace,SFMono-Regular,Menlo,Consolas,monospace}.muted{font-size:13px}</style>
<defs>
      <marker id="property-arrow" markerWidth="10" markerHeight="10" refX="9" refY="5" orient="auto" markerUnits="strokeWidth"><path d="M0,0 L10,5 L0,10 z" fill="#64748b"/></marker>
      <marker id="contains-arrow" markerWidth="10" markerHeight="10" refX="9" refY="5" orient="auto" markerUnits="strokeWidth"><path d="M0,0 L10,5 L0,10 z" fill="#7c3aed"/></marker>
      <marker id="composition-diamond" markerWidth="12" markerHeight="12" refX="2" refY="6" orient="auto" markerUnits="strokeWidth"><path d="M0,6 L6,0 L12,6 L6,12 z" fill="#7c3aed"/></marker>
    </defs>
<rect width="2700" height="834" fill="#f8fafc"/>
<text x="70" y="48" fill="#0f172a" font-size="34" font-weight="700"><tspan x="70" dy="0">ShareClassValuation</tspan></text>
<text x="70" y="84" fill="#475569" font-size="20"><tspan x="70" dy="0">Native structural mapping graph · 4 parent properties · 0 nested variants</tspan></text>
<text x="70" y="116" fill="#64748b" font-size="16"><tspan x="70" dy="0">OCF route classes map directly to Carta parent and nested variant properties; dashed purple edges show containment.</tspan></text>
<rect x="2080" y="38" width="20" height="20" rx="4" fill="#e6f4ea" stroke="#62a576"/>
<text x="2114" y="54" fill="#166534" font-size="16"><tspan x="2114" dy="0">OCF route node</tspan></text>
<rect x="2310" y="38" width="20" height="20" rx="4" fill="#e8f0fe" stroke="#6b8fd6"/>
<text x="2344" y="54" fill="#1e3a8a" font-size="16"><tspan x="2344" dy="0">Carta class node</tspan></text>
<line x1="2080" y1="84" x2="2130" y2="84" stroke="#64748b" stroke-width="2" marker-end="url(#property-arrow)"/>
<text x="2150" y="90" fill="#475569" font-size="14"><tspan x="2150" dy="0">property mapping</tspan></text>
<line x1="2080" y1="112" x2="2130" y2="112" stroke="#7c3aed" stroke-width="2" stroke-dasharray="7 5" marker-end="url(#contains-arrow)"/>
<text x="2150" y="118" fill="#6d28d9" font-size="14"><tspan x="2150" dy="0">contains</tspan></text>
<rect x="50" y="164" width="690" height="626" rx="14" fill="#f0fdf4" stroke="#bbf7d0" stroke-dasharray="8 6"/>
<text x="70" y="154" fill="#166534" font-size="18" font-weight="700"><tspan x="70" dy="0">OCF source routes</tspan></text>
<rect x="1700" y="164" width="960" height="316" rx="18" fill="#f8fbff" stroke="#7c9bd3" stroke-width="3"/>
<text x="1740" y="154" fill="#1e3a8a" font-size="18" font-weight="700"><tspan x="1740" dy="0">Carta target aggregate</tspan></text>
<text x="1722" y="188" fill="#315a9d" font-size="13" font-weight="700"><tspan x="1722" dy="0">«Carta aggregate»</tspan></text>
<path class="mapping-edge" data-target-key="parent" data-source-route="objects/StockClass.mapping.md|Common" data-source-label="StockClass [Common]" data-flow-key="objects/StockClass.mapping.md|Common|parent|class_type|common" d="M 720 303 C 1250.4 303, 1250.4 305, 1740 305" fill="none" stroke="#64748b" stroke-width="2" marker-end="url(#property-arrow)"><title>StockClass [Common].class_type → ShareClassValuation.common</title></path>
<path class="mapping-edge" data-target-key="parent" data-source-route="objects/StockClass.mapping.md|Common" data-source-label="StockClass [Common]" data-flow-key="objects/StockClass.mapping.md|Common|parent|name|shareClassName" d="M 720 337 C 1250.4 337, 1250.4 407, 1740 407" fill="none" stroke="#64748b" stroke-width="2" marker-end="url(#property-arrow)"><title>StockClass [Common].name → ShareClassValuation.shareClassName</title></path>
<path class="mapping-edge" data-target-key="parent" data-source-route="objects/StockClass.mapping.md|Preferred" data-source-label="StockClass [Preferred]" data-flow-key="objects/StockClass.mapping.md|Preferred|parent|class_type|common" d="M 720 511 C 1250.4 511, 1250.4 305, 1740 305" fill="none" stroke="#64748b" stroke-width="2" marker-end="url(#property-arrow)"><title>StockClass [Preferred].class_type → ShareClassValuation.common</title></path>
<path class="mapping-edge" data-target-key="parent" data-source-route="objects/StockClass.mapping.md|Preferred" data-source-label="StockClass [Preferred]" data-flow-key="objects/StockClass.mapping.md|Preferred|parent|name|shareClassName" d="M 720 545 C 1250.4 545, 1250.4 407, 1740 407" fill="none" stroke="#64748b" stroke-width="2" marker-end="url(#property-arrow)"><title>StockClass [Preferred].name → ShareClassValuation.shareClassName</title></path>
<path class="mapping-edge" data-target-key="parent" data-source-route="objects/Valuation.mapping.md|—" data-source-label="Valuation" data-flow-key="objects/Valuation.mapping.md|—|parent|price_per_share|price" d="M 720 691 C 1250.4 691, 1250.4 339, 1740 339" fill="none" stroke="#64748b" stroke-width="2" marker-end="url(#property-arrow)"><title>Valuation.price_per_share → ShareClassValuation.price</title></path>
<path class="mapping-edge" data-target-key="parent" data-source-route="objects/Valuation.mapping.md|—" data-source-label="Valuation" data-flow-key="objects/Valuation.mapping.md|—|parent|stock_class_id|shareClassId" d="M 720 725 C 1250.4 725, 1250.4 373, 1740 373" fill="none" stroke="#64748b" stroke-width="2" marker-end="url(#property-arrow)"><title>Valuation.stock_class_id → ShareClassValuation.shareClassId</title></path>
<rect class="source-node" data-source-route="objects/StockClass.mapping.md|Common" data-source-label="StockClass [Common]" x="70" y="194" width="650" height="174" rx="10" fill="#e6f4ea" stroke="#62a576" stroke-width="2"/>
<text x="88" y="216" fill="#166534" font-size="13" font-weight="700"><tspan x="88" dy="0">«OCF route»</tspan></text>
<text x="88" y="238" fill="#14532d" font-size="16" font-weight="700"><tspan x="88" dy="0">StockClass [Common]</tspan></text>
<text x="88" y="256" fill="#166534" font-size="12"><tspan x="88" dy="0">when class_type = COMMON</tspan></text>
<line x1="70" y1="286" x2="720" y2="286" stroke="#b7d8bf"/>
<text x="88" y="309" class="field" fill="#14532d" font-size="16" font-weight="700"><tspan x="88" dy="0">+ class_type</tspan></text>
<line x1="70" y1="320" x2="720" y2="320" stroke="#b7d8bf"/>
<text x="88" y="343" class="field" fill="#14532d" font-size="16" font-weight="700"><tspan x="88" dy="0">+ name</tspan></text>
<rect class="source-node" data-source-route="objects/StockClass.mapping.md|Preferred" data-source-label="StockClass [Preferred]" x="70" y="402" width="650" height="174" rx="10" fill="#e6f4ea" stroke="#62a576" stroke-width="2"/>
<text x="88" y="424" fill="#166534" font-size="13" font-weight="700"><tspan x="88" dy="0">«OCF route»</tspan></text>
<text x="88" y="446" fill="#14532d" font-size="16" font-weight="700"><tspan x="88" dy="0">StockClass [Preferred]</tspan></text>
<text x="88" y="464" fill="#166534" font-size="12"><tspan x="88" dy="0">when class_type = PREFERRED</tspan></text>
<line x1="70" y1="494" x2="720" y2="494" stroke="#b7d8bf"/>
<text x="88" y="517" class="field" fill="#14532d" font-size="16" font-weight="700"><tspan x="88" dy="0">+ class_type</tspan></text>
<line x1="70" y1="528" x2="720" y2="528" stroke="#b7d8bf"/>
<text x="88" y="551" class="field" fill="#14532d" font-size="16" font-weight="700"><tspan x="88" dy="0">+ name</tspan></text>
<rect class="source-node" data-source-route="objects/Valuation.mapping.md|—" data-source-label="Valuation" x="70" y="610" width="650" height="146" rx="10" fill="#e6f4ea" stroke="#62a576" stroke-width="2"/>
<text x="88" y="632" fill="#166534" font-size="13" font-weight="700"><tspan x="88" dy="0">«OCF route»</tspan></text>
<text x="88" y="654" fill="#14532d" font-size="16" font-weight="700"><tspan x="88" dy="0">Valuation</tspan></text>
<line x1="70" y1="674" x2="720" y2="674" stroke="#b7d8bf"/>
<text x="88" y="697" class="field" fill="#14532d" font-size="16" font-weight="700"><tspan x="88" dy="0">+ price_per_share</tspan></text>
<line x1="70" y1="708" x2="720" y2="708" stroke="#b7d8bf"/>
<text x="88" y="731" class="field" fill="#14532d" font-size="16" font-weight="700"><tspan x="88" dy="0">+ stock_class_id</tspan></text>
<rect class="target-node" data-target-key="parent" x="1740" y="194" width="880" height="232" rx="10" fill="#e8f0fe" stroke="#6b8fd6" stroke-width="2.5"/>
<text x="1758" y="216" fill="#1e3a8a" font-size="13" font-weight="700"><tspan x="1758" dy="0">«Carta parent»</tspan></text>
<text x="1758" y="238" fill="#1e3a8a" font-size="18" font-weight="700"><tspan x="1758" dy="0">ShareClassValuation</tspan></text>
<line x1="1740" y1="258" x2="2620" y2="258" stroke="#9bb6ea"/>
<text x="1758" y="280" fill="#1e3a8a" font-size="14" font-weight="700"><tspan x="1758" dy="0">parent properties (4)</tspan></text>
<line x1="1740" y1="288" x2="2620" y2="288" stroke="#c4d3f3"/>
<text x="1758" y="311" class="field" fill="#1e3a8a" font-size="16" font-weight="700"><tspan x="1758" dy="0">+ common</tspan></text>
<line x1="1740" y1="322" x2="2620" y2="322" stroke="#c4d3f3"/>
<text x="1758" y="345" class="field" fill="#1e3a8a" font-size="16" font-weight="700"><tspan x="1758" dy="0">+ price</tspan></text>
<line x1="1740" y1="356" x2="2620" y2="356" stroke="#c4d3f3"/>
<text x="1758" y="379" class="field" fill="#1e3a8a" font-size="16" font-weight="700"><tspan x="1758" dy="0">+ shareClassId</tspan></text>
<line x1="1740" y1="390" x2="2620" y2="390" stroke="#c4d3f3"/>
<text x="1758" y="413" class="field" fill="#1e3a8a" font-size="16" font-weight="700"><tspan x="1758" dy="0">+ shareClassName</tspan></text>
</svg>